<svg width="40" height="40" viewBox="0 0 40 40" fill="none" xmlns="http://www.w3.org/2000/svg">
<path d="M34.6096 0H5.3902C2.4134 0 0.00012207 2.41318 0.00012207 5.39008V34.6097C0.00012207 37.5866 2.4133 39.9998 5.3902 39.9998H19.8011L19.8257 25.706H16.1121C15.6295 25.706 15.2378 25.3158 15.236 24.8332L15.2182 20.2257C15.2163 19.7405 15.6092 19.3462 16.0944 19.3462H19.8012V14.8942C19.8012 9.72768 22.9566 6.91449 27.5654 6.91449H31.3473C31.8312 6.91449 32.2236 7.30677 32.2236 7.79074V11.6758C32.2236 12.1596 31.8315 12.5517 31.3478 12.552L29.0269 12.5531C26.5205 12.5531 26.0351 13.7441 26.0351 15.492V19.3463H31.5426C32.0674 19.3463 32.4746 19.8045 32.4127 20.3256L31.8666 24.9331C31.8144 25.374 31.4405 25.7062 30.9965 25.7062H26.0597L26.0351 40H34.6098C37.5866 40 39.9998 37.5868 39.9998 34.61V5.39008C39.9997 2.41318 37.5865 0 34.6096 0Z" fill="#475993"/>
</svg>
